<?xml version="1.0" standalone="no"?>
<!DOCTYPE svg PUBLIC "-//W3C//DTD SVG 20010904//EN"
 "http://www.w3.org/TR/2001/REC-SVG-20010904/DTD/svg10.dtd">
<svg version="1.0" xmlns="http://www.w3.org/2000/svg"
 width="1434.000000pt" height="166.000000pt" viewBox="0 0 1434.000000 166.000000"
 preserveAspectRatio="xMidYMid meet">

<g transform="translate(0.000000,166.000000) scale(0.100000,-0.100000)"
fill="#000000" stroke="none">
<path d="M1478 1366 c-31 -6 -60 -14 -63 -18 -16 -16 122 -214 203 -291 l40
-39 34 59 c19 32 43 79 53 106 10 26 23 47 29 47 15 0 11 117 -5 136 -14 17
-204 17 -291 0z"/>
<path d="M1206 1150 c-45 -14 -102 -76 -116 -126 -45 -159 107 -293 255 -225
50 22 91 69 105 119 12 46 12 58 0 104 -28 101 -140 159 -244 128z m144 -49
c123 -88 70 -281 -77 -281 -116 0 -191 109 -145 212 22 50 38 65 89 84 45 16
98 10 133 -15z"/>
<path d="M680 998 c-130 -28 -395 -90 -399 -93 -11 -12 17 -40 81 -82 40 -26
97 -64 126 -86 29 -22 54 -38 56 -36 1 2 23 36 48 74 24 39 80 107 122 153
l78 82 -33 -1 c-19 -1 -54 -5 -79 -11z"/>
<path d="M944 754 c-61 -32 -185 -121 -275 -196 -38 -32 -73 -58 -78 -58 -12
0 -41 80 -50 138 -7 44 -8 45 -16 19 -10 -36 0 -99 24 -147 18 -37 17 -37 -6
-64 -33 -38 -29 -49 13 -31 38 16 46 14 80 -16 18 -17 103 -49 129 -49 6 0 -8
9 -30 20 -23 11 -56 34 -75 50 -33 29 -34 31 -16 43 158 102 374 293 353 313
-2 2 -26 -8 -53 -22z"/>
<path d="M193 557 c-18 -12 -33 -25 -33 -29 0 -16 17 -7 45 22 34 35 31 37
-12 7z"/>
<path d="M247 536 c-4 -10 -1 -13 9 -9 15 6 19 23 5 23 -5 0 -11 -7 -14 -14z"/>
<path d="M1066 445 c-54 -29 -131 -63 -170 -75 -39 -12 -72 -23 -74 -25 -2 -2
57 -189 84 -262 9 -24 21 -43 27 -43 21 0 243 428 235 450 -2 4 -47 -16 -102
-45z"/>
<path d="M85 470 c-10 -11 -13 -20 -8 -20 13 0 38 29 31 35 -3 3 -13 -4 -23
-15z"/>
<path d="M40 435 c-11 -13 -10 -14 4 -9 9 3 16 10 16 15 0 13 -6 11 -20 -6z"/>
<path d="M87 423 c-12 -12 -7 -22 8 -17 8 4 15 10 15 15 0 11 -14 12 -23 2z"/>
</g>
</svg>
